<svg width="187" height="40" viewBox="0 0 187 40" fill="none" xmlns="http://www.w3.org/2000/svg">
<path d="M58.968 28V11.488H63.648L67.728 22.384H67.872L71.928 11.488H76.584V28H73.296V16.504H73.176L68.904 28H66.552L62.28 16.504H62.16V28H58.968ZM85.7379 28.192C84.6499 28.192 83.7459 28.12 83.0259 27.976C82.3059 27.832 81.7299 27.608 81.2979 27.304C80.8819 26.984 80.5619 26.584 80.3379 26.104C80.1299 25.608 79.9939 25.016 79.9299 24.328C79.8819 23.624 79.8579 22.816 79.8579 21.904C79.8579 20.816 79.9139 19.872 80.0259 19.072C80.1379 18.272 80.3699 17.616 80.7219 17.104C81.0899 16.576 81.6499 16.192 82.4019 15.952C83.1699 15.696 84.1859 15.568 85.4499 15.568C86.4739 15.568 87.3059 15.648 87.9459 15.808C88.5859 15.968 89.0899 16.208 89.4579 16.528C89.8419 16.848 90.1139 17.264 90.2739 17.776C90.4499 18.272 90.5619 18.864 90.6099 19.552C90.6579 20.24 90.6819 21.024 90.6819 21.904V22.84H83.0259C83.0259 23.448 83.0499 23.944 83.0979 24.328C83.1619 24.696 83.2979 24.976 83.5059 25.168C83.7299 25.36 84.0739 25.488 84.5379 25.552C85.0179 25.616 85.6659 25.648 86.4819 25.648C86.8179 25.648 87.1939 25.64 87.6099 25.624C88.0419 25.608 88.4819 25.584 88.9299 25.552C89.3939 25.52 89.8179 25.488 90.2019 25.456V27.808C89.8499 27.888 89.4179 27.952 88.9059 28C88.4099 28.064 87.8819 28.112 87.3219 28.144C86.7779 28.176 86.2499 28.192 85.7379 28.192ZM87.6579 21.256V20.872C87.6579 20.248 87.6179 19.752 87.5379 19.384C87.4739 19 87.3539 18.712 87.1779 18.52C87.0179 18.328 86.7939 18.208 86.5059 18.16C86.2179 18.096 85.8499 18.064 85.4019 18.064C84.8739 18.064 84.4579 18.104 84.1539 18.184C83.8499 18.248 83.6179 18.384 83.4579 18.592C83.2979 18.784 83.1859 19.072 83.1219 19.456C83.0579 19.824 83.0259 20.296 83.0259 20.872H88.0899L87.6579 21.256ZM94.8013 28V18.328H92.4493V15.76H94.8013V12.208H97.9933V15.76H100.777V18.328H97.9933V28H94.8013ZM105.767 28.192C104.983 28.192 104.319 28.08 103.775 27.856C103.231 27.616 102.815 27.232 102.527 26.704C102.255 26.16 102.119 25.448 102.119 24.568C102.119 23.624 102.231 22.88 102.455 22.336C102.679 21.776 103.071 21.376 103.631 21.136C104.191 20.88 104.967 20.752 105.959 20.752C106.119 20.752 106.343 20.76 106.631 20.776C106.919 20.776 107.247 20.784 107.615 20.8C107.983 20.8 108.351 20.808 108.719 20.824C109.087 20.824 109.423 20.832 109.727 20.848V20.368C109.727 19.84 109.687 19.424 109.607 19.12C109.527 18.816 109.375 18.592 109.151 18.448C108.927 18.304 108.599 18.216 108.167 18.184C107.735 18.152 107.175 18.136 106.487 18.136C106.135 18.136 105.727 18.144 105.263 18.16C104.799 18.176 104.351 18.2 103.919 18.232C103.487 18.264 103.143 18.296 102.887 18.328V15.928C103.575 15.816 104.319 15.728 105.119 15.664C105.919 15.6 106.727 15.568 107.543 15.568C108.503 15.568 109.303 15.632 109.943 15.76C110.599 15.872 111.119 16.056 111.503 16.312C111.903 16.568 112.199 16.896 112.391 17.296C112.599 17.68 112.735 18.144 112.799 18.688C112.863 19.216 112.895 19.824 112.895 20.512V28H109.943L109.847 26.512H109.655C109.383 27.008 109.023 27.376 108.575 27.616C108.143 27.856 107.679 28.008 107.183 28.072C106.703 28.152 106.231 28.192 105.767 28.192ZM107.279 25.744C107.631 25.744 107.935 25.72 108.191 25.672C108.463 25.624 108.695 25.544 108.887 25.432C109.095 25.304 109.255 25.144 109.367 24.952C109.479 24.744 109.567 24.488 109.631 24.184C109.695 23.88 109.727 23.512 109.727 23.08V22.72H106.823C106.375 22.72 106.031 22.752 105.791 22.816C105.551 22.88 105.391 23.024 105.311 23.248C105.231 23.472 105.191 23.808 105.191 24.256C105.191 24.672 105.239 24.992 105.335 25.216C105.431 25.424 105.631 25.568 105.935 25.648C106.239 25.712 106.687 25.744 107.279 25.744ZM116.601 28V11.488H127.881V14.272H120.009V18.28H126.753V21.064H120.009V25.216H127.881V28H116.601ZM135.403 28.192C134.907 28.192 134.371 28.176 133.795 28.144C133.235 28.112 132.683 28.072 132.139 28.024C131.595 27.976 131.099 27.92 130.651 27.856V25.456C130.891 25.472 131.171 25.496 131.491 25.528C131.827 25.544 132.187 25.56 132.571 25.576C132.955 25.592 133.331 25.608 133.699 25.624C134.067 25.64 134.411 25.648 134.731 25.648C135.467 25.648 135.995 25.616 136.315 25.552C136.651 25.472 136.867 25.344 136.963 25.168C137.059 24.976 137.107 24.728 137.107 24.424C137.107 24.104 137.075 23.872 137.011 23.728C136.947 23.568 136.827 23.464 136.651 23.416C136.475 23.368 136.187 23.32 135.787 23.272L132.931 22.912C132.179 22.816 131.611 22.616 131.227 22.312C130.859 22.008 130.603 21.6 130.459 21.088C130.331 20.576 130.267 19.968 130.267 19.264C130.267 18.432 130.387 17.776 130.627 17.296C130.883 16.8 131.227 16.432 131.659 16.192C132.107 15.936 132.635 15.768 133.243 15.688C133.867 15.608 134.539 15.568 135.259 15.568C135.739 15.568 136.235 15.584 136.747 15.616C137.259 15.648 137.747 15.696 138.211 15.76C138.691 15.808 139.091 15.872 139.411 15.952V18.328C139.043 18.28 138.635 18.248 138.187 18.232C137.739 18.2 137.299 18.176 136.867 18.16C136.435 18.128 136.051 18.112 135.715 18.112C135.107 18.112 134.619 18.136 134.251 18.184C133.899 18.216 133.651 18.312 133.507 18.472C133.363 18.632 133.291 18.896 133.291 19.264C133.291 19.552 133.315 19.776 133.363 19.936C133.411 20.08 133.515 20.184 133.675 20.248C133.835 20.296 134.091 20.344 134.443 20.392L137.539 20.776C138.099 20.84 138.571 20.968 138.955 21.16C139.339 21.352 139.619 21.688 139.795 22.168C139.987 22.648 140.083 23.376 140.083 24.352C140.083 25.2 139.979 25.88 139.771 26.392C139.563 26.888 139.243 27.272 138.811 27.544C138.395 27.8 137.899 27.968 137.323 28.048C136.763 28.144 136.123 28.192 135.403 28.192ZM143.926 28V18.328H141.574V15.76H143.926V12.208H147.118V15.76H149.902V18.328H147.118V28H143.926ZM154.892 28.192C154.108 28.192 153.444 28.08 152.9 27.856C152.356 27.616 151.94 27.232 151.652 26.704C151.38 26.16 151.244 25.448 151.244 24.568C151.244 23.624 151.356 22.88 151.58 22.336C151.804 21.776 152.196 21.376 152.756 21.136C153.316 20.88 154.092 20.752 155.084 20.752C155.244 20.752 155.468 20.76 155.756 20.776C156.044 20.776 156.372 20.784 156.74 20.8C157.108 20.8 157.476 20.808 157.844 20.824C158.212 20.824 158.548 20.832 158.852 20.848V20.368C158.852 19.84 158.812 19.424 158.732 19.12C158.652 18.816 158.5 18.592 158.276 18.448C158.052 18.304 157.724 18.216 157.292 18.184C156.86 18.152 156.3 18.136 155.612 18.136C155.26 18.136 154.852 18.144 154.388 18.16C153.924 18.176 153.476 18.2 153.044 18.232C152.612 18.264 152.268 18.296 152.012 18.328V15.928C152.7 15.816 153.444 15.728 154.244 15.664C155.044 15.6 155.852 15.568 156.668 15.568C157.628 15.568 158.428 15.632 159.068 15.76C159.724 15.872 160.244 16.056 160.628 16.312C161.028 16.568 161.324 16.896 161.516 17.296C161.724 17.68 161.86 18.144 161.924 18.688C161.988 19.216 162.02 19.824 162.02 20.512V28H159.068L158.972 26.512H158.78C158.508 27.008 158.148 27.376 157.7 27.616C157.268 27.856 156.804 28.008 156.308 28.072C155.828 28.152 155.356 28.192 154.892 28.192ZM156.404 25.744C156.756 25.744 157.06 25.72 157.316 25.672C157.588 25.624 157.82 25.544 158.012 25.432C158.22 25.304 158.38 25.144 158.492 24.952C158.604 24.744 158.692 24.488 158.756 24.184C158.82 23.88 158.852 23.512 158.852 23.08V22.72H155.948C155.5 22.72 155.156 22.752 154.916 22.816C154.676 22.88 154.516 23.024 154.436 23.248C154.356 23.472 154.316 23.808 154.316 24.256C154.316 24.672 154.364 24.992 154.46 25.216C154.556 25.424 154.756 25.568 155.06 25.648C155.364 25.712 155.812 25.744 156.404 25.744ZM166.497 28V18.328H164.145V15.76H166.497V12.208H169.689V15.76H172.473V18.328H169.689V28H166.497ZM180.027 28.192C178.939 28.192 178.035 28.12 177.315 27.976C176.595 27.832 176.019 27.608 175.587 27.304C175.171 26.984 174.851 26.584 174.627 26.104C174.419 25.608 174.283 25.016 174.219 24.328C174.171 23.624 174.147 22.816 174.147 21.904C174.147 20.816 174.203 19.872 174.315 19.072C174.427 18.272 174.659 17.616 175.011 17.104C175.379 16.576 175.939 16.192 176.691 15.952C177.459 15.696 178.475 15.568 179.739 15.568C180.763 15.568 181.595 15.648 182.235 15.808C182.875 15.968 183.379 16.208 183.747 16.528C184.131 16.848 184.403 17.264 184.563 17.776C184.739 18.272 184.851 18.864 184.899 19.552C184.947 20.24 184.971 21.024 184.971 21.904V22.84H177.315C177.315 23.448 177.339 23.944 177.387 24.328C177.451 24.696 177.587 24.976 177.795 25.168C178.019 25.36 178.363 25.488 178.827 25.552C179.307 25.616 179.955 25.648 180.771 25.648C181.107 25.648 181.483 25.64 181.899 25.624C182.331 25.608 182.771 25.584 183.219 25.552C183.683 25.52 184.107 25.488 184.491 25.456V27.808C184.139 27.888 183.707 27.952 183.195 28C182.699 28.064 182.171 28.112 181.611 28.144C181.067 28.176 180.539 28.192 180.027 28.192ZM181.947 21.256V20.872C181.947 20.248 181.907 19.752 181.827 19.384C181.763 19 181.643 18.712 181.467 18.52C181.307 18.328 181.083 18.208 180.795 18.16C180.507 18.096 180.139 18.064 179.691 18.064C179.163 18.064 178.747 18.104 178.443 18.184C178.139 18.248 177.907 18.384 177.747 18.592C177.587 18.784 177.475 19.072 177.411 19.456C177.347 19.824 177.315 20.296 177.315 20.872H182.379L181.947 21.256Z" fill="white"/>
<g clip-path="url(#clip0_218_42201)">
<path fill-rule="evenodd" clip-rule="evenodd" d="M22.3568 0H12.0676L0 20.3115L8.25676 34.5171L11.4324 40L35.4405 40.1246L43.8243 25.919L47 20.5607L35.0595 0.124611L22.3568 0ZM30.2324 13.5826L24.2622 3.36449H33.027L43.0622 20.5607L39.8865 25.919H31.7568L34.5514 21.0592L30.2324 13.5826ZM20.3243 3.36449L24.3892 10.3427H18.673L9.01892 26.7913L8.38378 27.9128L3.93784 20.3115L14.1 3.23988H20.3243V3.36449ZM16.3865 20.9346L20.7054 13.5826H26.4216L30.7405 20.9346L27.9459 25.7944H19.3081L16.3865 20.9346ZM10.2892 31.2773L11.9405 28.5358L14.3541 24.4237L17.2757 29.2835H25.9135H37.9811L33.5351 36.7601L13.4649 36.6355L10.2892 31.2773Z" fill="#FFFA7E"/>
<path d="M26.5503 17H21V22.5503H26.5503V17Z" fill="#DD6A2C"/>
</g>
<defs>
<clipPath id="clip0_218_42201">
<rect width="47" height="40" fill="white"/>
</clipPath>
</defs>
</svg>
